<?xml version="1.0" encoding="UTF-8"?>
<svg viewBox="0 0 960 280" xmlns="http://www.w3.org/2000/svg"
     font-family="-apple-system, BlinkMacSystemFont, 'Segoe UI', Roboto, Helvetica, Arial, sans-serif">

  <!-- Background -->
  <rect width="960" height="280" fill="#F8FAFC" rx="10"/>

  <!-- ══════════════════════════════════════════════════════════
       TOP ROW — hardware / software chain
       ══════════════════════════════════════════════════════════ -->

  <!-- Box 1: Growatt Inverter -->
  <rect x="20" y="40" width="175" height="90" rx="7" fill="#FFFBEB" stroke="#F59E0B" stroke-width="1.5"/>
  <text x="107" y="62" text-anchor="middle" font-size="12" font-weight="700" fill="#92400E">Growatt Inverter</text>
  <line x1="25" y1="68" x2="190" y2="68" stroke="#FDE68A" stroke-width="1"/>
  <text x="107" y="83" text-anchor="middle" font-size="10" fill="#78350F">SPH · SPF · MIN · MIC</text>
  <text x="107" y="97" text-anchor="middle" font-size="10" fill="#78350F">MOD · WIT · TL-XH · SPE</text>
  <text x="107" y="118" text-anchor="middle" font-size="9" fill="#B45309" font-style="italic">RS485 COM port</text>

  <!-- Arrow 1 -->
  <line x1="196" y1="85" x2="237" y2="85" stroke="#94A3B8" stroke-width="1.5"/>
  <polygon points="233,81 242,85 233,89" fill="#94A3B8"/>
  <text x="216" y="78" text-anchor="middle" font-size="9" fill="#64748B">RS485</text>
  <text x="216" y="100" text-anchor="middle" font-size="9" fill="#64748B">A / B</text>

  <!-- Box 2: RS485 Adapter -->
  <rect x="242" y="40" width="175" height="90" rx="7" fill="#EFF6FF" stroke="#3B82F6" stroke-width="1.5"/>
  <text x="329" y="62" text-anchor="middle" font-size="12" font-weight="700" fill="#1D4ED8">RS485 Adapter</text>
  <line x1="247" y1="68" x2="412" y2="68" stroke="#BFDBFE" stroke-width="1"/>
  <text x="329" y="83" text-anchor="middle" font-size="10" fill="#1E40AF">EW11 · USR-W630</text>
  <text x="329" y="97" text-anchor="middle" font-size="10" fill="#1E40AF">Waveshare · USR-TCP232</text>
  <text x="329" y="118" text-anchor="middle" font-size="9" fill="#3B82F6" font-style="italic">9600 8N1 · port 502</text>

  <!-- Arrow 2 -->
  <line x1="418" y1="85" x2="459" y2="85" stroke="#94A3B8" stroke-width="1.5"/>
  <polygon points="455,81 464,85 455,89" fill="#94A3B8"/>
  <text x="438" y="78" text-anchor="middle" font-size="9" fill="#64748B">TCP :502</text>
  <text x="438" y="100" text-anchor="middle" font-size="9" fill="#64748B">or USB</text>

  <!-- Box 3: Home Assistant -->
  <rect x="464" y="40" width="175" height="90" rx="7" fill="#F0FDF4" stroke="#16A34A" stroke-width="1.5"/>
  <text x="551" y="62" text-anchor="middle" font-size="12" font-weight="700" fill="#15803D">Home Assistant</text>
  <line x1="469" y1="68" x2="634" y2="68" stroke="#BBF7D0" stroke-width="1"/>
  <text x="551" y="83" text-anchor="middle" font-size="10" fill="#166534">2023.1 or newer</text>
  <text x="551" y="97" text-anchor="middle" font-size="10" fill="#166534">Raspberry Pi · NUC · VM</text>
  <text x="551" y="118" text-anchor="middle" font-size="9" fill="#16A34A" font-style="italic">local network only</text>

  <!-- Arrow 3 -->
  <line x1="640" y1="85" x2="681" y2="85" stroke="#94A3B8" stroke-width="1.5"/>
  <polygon points="677,81 686,85 677,89" fill="#94A3B8"/>
  <text x="660" y="78" text-anchor="middle" font-size="9" fill="#64748B">HACS /</text>
  <text x="660" y="100" text-anchor="middle" font-size="9" fill="#64748B">manual</text>

  <!-- Box 4: Integration -->
  <rect x="686" y="40" width="254" height="90" rx="7" fill="#EEF2FF" stroke="#6366F1" stroke-width="2"/>
  <text x="813" y="62" text-anchor="middle" font-size="12" font-weight="700" fill="#4338CA">Growatt Modbus Integration</text>
  <line x1="691" y1="68" x2="935" y2="68" stroke="#C7D2FE" stroke-width="1"/>
  <text x="813" y="83" text-anchor="middle" font-size="10" fill="#4338CA">Auto-detection · Local polling · No cloud</text>
  <text x="813" y="97" text-anchor="middle" font-size="10" fill="#4338CA">VPP 2.01 · Legacy · Off-grid protocols</text>
  <text x="813" y="111" text-anchor="middle" font-size="10" fill="#4338CA">Write verification · Cloud override detection</text>

  <!-- "Creates HA devices" label -->
  <text x="480" y="152" text-anchor="middle" font-size="9" fill="#94A3B8" letter-spacing="1">CREATES HA DEVICES</text>
  <line x1="20" y1="157" x2="940" y2="157" stroke="#E2E8F0" stroke-width="1"/>

  <!-- ══════════════════════════════════════════════════════════
       BOTTOM ROW — HA device chips
       ══════════════════════════════════════════════════════════ -->

  <!-- Inverter Device -->
  <rect x="20" y="163" width="164" height="98" rx="6" fill="#F1F5F9" stroke="#94A3B8" stroke-width="1.5"/>
  <text x="102" y="182" text-anchor="middle" font-size="11" font-weight="700" fill="#0F172A">Inverter</text>
  <line x1="25" y1="188" x2="179" y2="188" stroke="#E2E8F0" stroke-width="1"/>
  <text x="102" y="203" text-anchor="middle" font-size="9" fill="#475569">Status · temperatures</text>
  <text x="102" y="217" text-anchor="middle" font-size="9" fill="#475569">Fault codes · firmware</text>
  <text x="102" y="231" text-anchor="middle" font-size="9" fill="#475569">Control entities</text>
  <text x="102" y="252" text-anchor="middle" font-size="8" fill="#94A3B8" font-style="italic">parent device</text>

  <!-- Solar Device -->
  <rect x="198" y="163" width="164" height="98" rx="6" fill="#FFFBEB" stroke="#F59E0B" stroke-width="1.5"/>
  <text x="280" y="182" text-anchor="middle" font-size="11" font-weight="700" fill="#92400E">Solar</text>
  <line x1="203" y1="188" x2="357" y2="188" stroke="#FDE68A" stroke-width="1"/>
  <text x="280" y="203" text-anchor="middle" font-size="9" fill="#78350F">PV1 · PV2 · PV3 power</text>
  <text x="280" y="217" text-anchor="middle" font-size="9" fill="#78350F">AC output · frequency</text>
  <text x="280" y="231" text-anchor="middle" font-size="9" fill="#78350F">Energy today / total</text>

  <!-- Grid Device -->
  <rect x="376" y="163" width="164" height="98" rx="6" fill="#EFF6FF" stroke="#3B82F6" stroke-width="1.5"/>
  <text x="458" y="182" text-anchor="middle" font-size="11" font-weight="700" fill="#1D4ED8">Grid</text>
  <line x1="381" y1="188" x2="535" y2="188" stroke="#BFDBFE" stroke-width="1"/>
  <text x="458" y="203" text-anchor="middle" font-size="9" fill="#1E40AF">Import · export power</text>
  <text x="458" y="217" text-anchor="middle" font-size="9" fill="#1E40AF">Grid voltage · frequency</text>
  <text x="458" y="231" text-anchor="middle" font-size="9" fill="#1E40AF">Energy to / from grid</text>

  <!-- Load Device -->
  <rect x="554" y="163" width="164" height="98" rx="6" fill="#F5F3FF" stroke="#8B5CF6" stroke-width="1.5"/>
  <text x="636" y="182" text-anchor="middle" font-size="11" font-weight="700" fill="#5B21B6">Load</text>
  <line x1="559" y1="188" x2="713" y2="188" stroke="#DDD6FE" stroke-width="1"/>
  <text x="636" y="203" text-anchor="middle" font-size="9" fill="#4C1D95">House consumption</text>
  <text x="636" y="217" text-anchor="middle" font-size="9" fill="#4C1D95">Load power</text>
  <text x="636" y="231" text-anchor="middle" font-size="9" fill="#4C1D95">Load energy today</text>

  <!-- Battery Device -->
  <rect x="732" y="163" width="208" height="98" rx="6" fill="#F0FDF4" stroke="#16A34A" stroke-width="1.5"/>
  <text x="836" y="182" text-anchor="middle" font-size="11" font-weight="700" fill="#15803D">Battery</text>
  <line x1="737" y1="188" x2="935" y2="188" stroke="#BBF7D0" stroke-width="1"/>
  <text x="836" y="203" text-anchor="middle" font-size="9" fill="#166534">SOC · voltage · power</text>
  <text x="836" y="217" text-anchor="middle" font-size="9" fill="#166534">Charge / discharge energy</text>
  <text x="836" y="231" text-anchor="middle" font-size="9" fill="#166534">Temperature</text>
  <text x="836" y="252" text-anchor="middle" font-size="8" fill="#16A34A" font-style="italic">hybrid models only</text>

</svg>
